<mxfile host="65bd71144e">
    <diagram id="gcB8yLWqz9-Rq8zxJBAH" name="Page-1">
        <mxGraphModel dx="1370" dy="779" grid="0" gridSize="10" guides="1" tooltips="1" connect="1" arrows="1" fold="1" page="1" pageScale="1" pageWidth="850" pageHeight="1100" background="none" math="0" shadow="0">
            <root>
                <mxCell id="0"/>
                <mxCell id="1" parent="0"/>
                <mxCell id="2" value="clientes" style="whiteSpace=wrap;html=1;align=center;labelBackgroundColor=none;fillColor=#EEEEEE;strokeColor=#FFFFFF;fontColor=#1A1A1A;" parent="1" vertex="1">
                    <mxGeometry x="300" y="120" width="120" height="80" as="geometry"/>
                </mxCell>
                <mxCell id="3" value="veiculos" style="whiteSpace=wrap;html=1;align=center;labelBackgroundColor=none;fillColor=#EEEEEE;strokeColor=#FFFFFF;fontColor=#1A1A1A;" parent="1" vertex="1">
                    <mxGeometry x="100" y="280" width="120" height="80" as="geometry"/>
                </mxCell>
                <mxCell id="4" value="equipe_mecanicos" style="whiteSpace=wrap;html=1;align=center;labelBackgroundColor=none;fillColor=#EEEEEE;strokeColor=#FFFFFF;fontColor=#1A1A1A;" parent="1" vertex="1">
                    <mxGeometry x="500" y="280" width="120" height="80" as="geometry"/>
                </mxCell>
                <mxCell id="5" value="ordens_servico" style="whiteSpace=wrap;html=1;align=center;labelBackgroundColor=none;fillColor=#EEEEEE;strokeColor=#FFFFFF;fontColor=#1A1A1A;" parent="1" vertex="1">
                    <mxGeometry x="300" y="440" width="120" height="80" as="geometry"/>
                </mxCell>
                <mxCell id="6" value="pecas" style="whiteSpace=wrap;html=1;align=center;labelBackgroundColor=none;fillColor=#EEEEEE;strokeColor=#FFFFFF;fontColor=#1A1A1A;" parent="1" vertex="1">
                    <mxGeometry x="100" y="760" width="120" height="80" as="geometry"/>
                </mxCell>
                <mxCell id="8" value="mao_de_obra" style="whiteSpace=wrap;html=1;align=center;labelBackgroundColor=none;fillColor=#EEEEEE;strokeColor=#FFFFFF;fontColor=#1A1A1A;" parent="1" vertex="1">
                    <mxGeometry x="500" y="760" width="120" height="80" as="geometry"/>
                </mxCell>
                <mxCell id="9" value="mecanicos" style="whiteSpace=wrap;html=1;align=center;labelBackgroundColor=none;fillColor=#EEEEEE;strokeColor=#FFFFFF;fontColor=#1A1A1A;" parent="1" vertex="1">
                    <mxGeometry x="700" y="280" width="120" height="80" as="geometry"/>
                </mxCell>
                <mxCell id="14" style="edgeStyle=none;html=1;entryX=0;entryY=0.5;entryDx=0;entryDy=0;labelBackgroundColor=none;strokeColor=#FFFFFF;fontColor=default;" parent="1" source="13" target="5" edge="1">
                    <mxGeometry relative="1" as="geometry">
                        <mxPoint x="260" y="480" as="targetPoint"/>
                    </mxGeometry>
                </mxCell>
                <mxCell id="13" value="ordem_&lt;br&gt;servico_id" style="ellipse;whiteSpace=wrap;html=1;align=center;labelBackgroundColor=none;fillColor=#EEEEEE;strokeColor=#FFFFFF;fontColor=#1A1A1A;" parent="1" vertex="1">
                    <mxGeometry x="200" y="450" width="70" height="30" as="geometry"/>
                </mxCell>
                <mxCell id="21" value="" style="edgeStyle=entityRelationEdgeStyle;fontSize=12;html=1;endArrow=ERoneToMany;exitX=0;exitY=0.5;exitDx=0;exitDy=0;entryX=1;entryY=0.5;entryDx=0;entryDy=0;labelBackgroundColor=none;strokeColor=#FFFFFF;fontColor=default;" parent="1" source="2" target="3" edge="1">
                    <mxGeometry width="100" height="100" relative="1" as="geometry">
                        <mxPoint x="440" y="510" as="sourcePoint"/>
                        <mxPoint x="540" y="410" as="targetPoint"/>
                    </mxGeometry>
                </mxCell>
                <mxCell id="22" value="" style="edgeStyle=entityRelationEdgeStyle;fontSize=12;html=1;endArrow=ERoneToMany;labelBackgroundColor=none;strokeColor=#FFFFFF;fontColor=default;exitX=0;exitY=0.5;exitDx=0;exitDy=0;entryX=1;entryY=0.5;entryDx=0;entryDy=0;" parent="1" source="9" target="4" edge="1">
                    <mxGeometry width="100" height="100" relative="1" as="geometry">
                        <mxPoint x="654" y="312" as="sourcePoint"/>
                        <mxPoint x="656" y="355" as="targetPoint"/>
                    </mxGeometry>
                </mxCell>
                <mxCell id="23" value="" style="edgeStyle=entityRelationEdgeStyle;fontSize=12;html=1;endArrow=ERoneToMany;exitX=1;exitY=1;exitDx=0;exitDy=0;entryX=0;entryY=0;entryDx=0;entryDy=0;labelBackgroundColor=none;strokeColor=#FFFFFF;fontColor=default;" parent="1" source="3" target="5" edge="1">
                    <mxGeometry width="100" height="100" relative="1" as="geometry">
                        <mxPoint x="440" y="510" as="sourcePoint"/>
                        <mxPoint x="540" y="410" as="targetPoint"/>
                    </mxGeometry>
                </mxCell>
                <mxCell id="24" value="" style="edgeStyle=entityRelationEdgeStyle;fontSize=12;html=1;endArrow=ERoneToMany;exitX=0;exitY=0.5;exitDx=0;exitDy=0;entryX=1;entryY=0;entryDx=0;entryDy=0;labelBackgroundColor=none;strokeColor=#FFFFFF;fontColor=default;" parent="1" source="4" target="5" edge="1">
                    <mxGeometry width="100" height="100" relative="1" as="geometry">
                        <mxPoint x="440" y="510" as="sourcePoint"/>
                        <mxPoint x="540" y="410" as="targetPoint"/>
                    </mxGeometry>
                </mxCell>
                <mxCell id="25" value="ordens_serviço/&lt;br&gt;peças_utilizadas" style="shape=associativeEntity;whiteSpace=wrap;html=1;align=center;labelBackgroundColor=none;fillColor=#EEEEEE;strokeColor=#FFFFFF;fontColor=#1A1A1A;" parent="1" vertex="1">
                    <mxGeometry x="100" y="600" width="120" height="80" as="geometry"/>
                </mxCell>
                <mxCell id="26" value="" style="edgeStyle=entityRelationEdgeStyle;fontSize=12;html=1;endArrow=ERmany;startArrow=ERmany;entryX=0;entryY=1;entryDx=0;entryDy=0;exitX=1;exitY=0.5;exitDx=0;exitDy=0;labelBackgroundColor=none;strokeColor=#FFFFFF;fontColor=default;" parent="1" source="25" target="5" edge="1">
                    <mxGeometry width="100" height="100" relative="1" as="geometry">
                        <mxPoint x="440" y="510" as="sourcePoint"/>
                        <mxPoint x="540" y="410" as="targetPoint"/>
                    </mxGeometry>
                </mxCell>
                <mxCell id="27" value="" style="edgeStyle=entityRelationEdgeStyle;fontSize=12;html=1;endArrow=ERoneToMany;startArrow=ERoneToMany;exitX=1;exitY=0.5;exitDx=0;exitDy=0;entryX=1;entryY=0.5;entryDx=0;entryDy=0;labelBackgroundColor=none;strokeColor=#FFFFFF;fontColor=default;" parent="1" source="25" target="6" edge="1">
                    <mxGeometry width="100" height="100" relative="1" as="geometry">
                        <mxPoint x="440" y="510" as="sourcePoint"/>
                        <mxPoint x="540" y="410" as="targetPoint"/>
                    </mxGeometry>
                </mxCell>
                <mxCell id="29" value="ordens_serviço/&lt;br&gt;mao_de_obra" style="shape=associativeEntity;align=center;labelPosition=center;verticalLabelPosition=middle;verticalAlign=middle;labelBackgroundColor=none;labelBorderColor=none;html=1;fillColor=#EEEEEE;strokeColor=#FFFFFF;fontColor=#1A1A1A;" parent="1" vertex="1">
                    <mxGeometry x="500" y="600" width="120" height="80" as="geometry"/>
                </mxCell>
                <mxCell id="30" value="" style="edgeStyle=entityRelationEdgeStyle;fontSize=12;html=1;endArrow=ERzeroToMany;endFill=1;startArrow=ERzeroToMany;entryX=1;entryY=1;entryDx=0;entryDy=0;exitX=0;exitY=0.5;exitDx=0;exitDy=0;labelBackgroundColor=none;strokeColor=#FFFFFF;fontColor=default;" parent="1" source="29" target="5" edge="1">
                    <mxGeometry width="100" height="100" relative="1" as="geometry">
                        <mxPoint x="330" y="545" as="sourcePoint"/>
                        <mxPoint x="430" y="445" as="targetPoint"/>
                    </mxGeometry>
                </mxCell>
                <mxCell id="31" value="" style="edgeStyle=entityRelationEdgeStyle;fontSize=12;html=1;endArrow=ERzeroToMany;endFill=1;startArrow=ERzeroToMany;entryX=0;entryY=1;entryDx=0;entryDy=0;exitX=0;exitY=0.5;exitDx=0;exitDy=0;labelBackgroundColor=none;strokeColor=#FFFFFF;fontColor=default;" parent="1" source="8" target="29" edge="1">
                    <mxGeometry width="100" height="100" relative="1" as="geometry">
                        <mxPoint x="265" y="680" as="sourcePoint"/>
                        <mxPoint x="365" y="580" as="targetPoint"/>
                    </mxGeometry>
                </mxCell>
                <mxCell id="42" style="edgeStyle=none;html=1;entryX=0.25;entryY=1;entryDx=0;entryDy=0;labelBackgroundColor=none;strokeColor=#FFFFFF;fontColor=default;" parent="1" source="37" target="9" edge="1">
                    <mxGeometry relative="1" as="geometry"/>
                </mxCell>
                <mxCell id="37" value="endereco" style="ellipse;whiteSpace=wrap;html=1;align=center;labelBackgroundColor=none;labelBorderColor=none;fillColor=#EEEEEE;strokeColor=#FFFFFF;fontColor=#1A1A1A;" parent="1" vertex="1">
                    <mxGeometry x="690" y="400" width="70" height="30" as="geometry"/>
                </mxCell>
                <mxCell id="39" style="edgeStyle=none;html=1;entryX=0;entryY=0.25;entryDx=0;entryDy=0;labelBackgroundColor=none;strokeColor=#FFFFFF;fontColor=default;" parent="1" source="38" target="9" edge="1">
                    <mxGeometry relative="1" as="geometry"/>
                </mxCell>
                <mxCell id="38" value="mecanico_id" style="ellipse;whiteSpace=wrap;html=1;align=center;fontStyle=4;labelBackgroundColor=none;labelBorderColor=none;fillColor=#EEEEEE;strokeColor=#FFFFFF;fontColor=#1A1A1A;" parent="1" vertex="1">
                    <mxGeometry x="630" y="250" width="70" height="30" as="geometry"/>
                </mxCell>
                <mxCell id="41" style="edgeStyle=none;html=1;entryX=0.5;entryY=0;entryDx=0;entryDy=0;labelBackgroundColor=none;strokeColor=#FFFFFF;fontColor=default;" parent="1" source="40" target="9" edge="1">
                    <mxGeometry relative="1" as="geometry"/>
                </mxCell>
                <mxCell id="40" value="nome" style="ellipse;whiteSpace=wrap;html=1;align=center;labelBackgroundColor=none;labelBorderColor=none;fillColor=#EEEEEE;strokeColor=#FFFFFF;fontColor=#1A1A1A;" parent="1" vertex="1">
                    <mxGeometry x="720" y="230" width="70" height="30" as="geometry"/>
                </mxCell>
                <mxCell id="44" style="edgeStyle=none;html=1;entryX=0.75;entryY=1;entryDx=0;entryDy=0;labelBackgroundColor=none;strokeColor=#FFFFFF;fontColor=default;" parent="1" source="43" target="9" edge="1">
                    <mxGeometry relative="1" as="geometry"/>
                </mxCell>
                <mxCell id="43" value="especialidade" style="ellipse;whiteSpace=wrap;html=1;align=center;labelBackgroundColor=none;labelBorderColor=none;fillColor=#EEEEEE;strokeColor=#FFFFFF;fontColor=#1A1A1A;" parent="1" vertex="1">
                    <mxGeometry x="770" y="400" width="70" height="30" as="geometry"/>
                </mxCell>
                <mxCell id="47" style="edgeStyle=none;html=1;entryX=0.25;entryY=1;entryDx=0;entryDy=0;labelBackgroundColor=none;strokeColor=#FFFFFF;fontColor=default;" parent="1" source="45" target="4" edge="1">
                    <mxGeometry relative="1" as="geometry"/>
                </mxCell>
                <mxCell id="45" value="equipe_&lt;br&gt;mecanicos_id" style="ellipse;whiteSpace=wrap;html=1;align=center;labelBackgroundColor=none;labelBorderColor=none;fillColor=#EEEEEE;strokeColor=#FFFFFF;fontColor=#1A1A1A;" parent="1" vertex="1">
                    <mxGeometry x="480" y="390" width="90" height="40" as="geometry"/>
                </mxCell>
                <mxCell id="49" style="edgeStyle=none;html=1;entryX=0;entryY=0.25;entryDx=0;entryDy=0;labelBackgroundColor=none;strokeColor=#FFFFFF;fontColor=default;" parent="1" source="48" target="2" edge="1">
                    <mxGeometry relative="1" as="geometry"/>
                </mxCell>
                <mxCell id="48" value="cliente_id" style="ellipse;whiteSpace=wrap;html=1;align=center;fontStyle=4;labelBackgroundColor=none;labelBorderColor=none;fillColor=#EEEEEE;strokeColor=#FFFFFF;fontColor=#1A1A1A;" parent="1" vertex="1">
                    <mxGeometry x="210" y="100" width="70" height="30" as="geometry"/>
                </mxCell>
                <mxCell id="51" style="edgeStyle=none;html=1;entryX=0;entryY=0.25;entryDx=0;entryDy=0;labelBackgroundColor=none;strokeColor=#FFFFFF;fontColor=default;" parent="1" source="50" target="3" edge="1">
                    <mxGeometry relative="1" as="geometry"/>
                </mxCell>
                <mxCell id="50" value="veiculo_id" style="ellipse;whiteSpace=wrap;html=1;align=center;fontStyle=4;labelBackgroundColor=none;labelBorderColor=none;fillColor=#EEEEEE;strokeColor=#FFFFFF;fontColor=#1A1A1A;" parent="1" vertex="1">
                    <mxGeometry x="10" y="270" width="70" height="30" as="geometry"/>
                </mxCell>
                <mxCell id="53" style="edgeStyle=none;html=1;entryX=0;entryY=0.25;entryDx=0;entryDy=0;labelBackgroundColor=none;strokeColor=#FFFFFF;fontColor=default;" parent="1" source="52" target="6" edge="1">
                    <mxGeometry relative="1" as="geometry"/>
                </mxCell>
                <mxCell id="52" value="peca_id" style="ellipse;whiteSpace=wrap;html=1;align=center;fontStyle=4;labelBackgroundColor=none;labelBorderColor=none;fillColor=#EEEEEE;strokeColor=#FFFFFF;fontColor=#1A1A1A;" parent="1" vertex="1">
                    <mxGeometry x="30" y="730" width="70" height="30" as="geometry"/>
                </mxCell>
                <mxCell id="55" style="edgeStyle=none;html=1;entryX=0;entryY=0.25;entryDx=0;entryDy=0;labelBackgroundColor=none;strokeColor=#FFFFFF;fontColor=default;" parent="1" source="54" target="8" edge="1">
                    <mxGeometry relative="1" as="geometry"/>
                </mxCell>
                <mxCell id="54" value="mao_de_&lt;br&gt;obra_id" style="ellipse;whiteSpace=wrap;html=1;align=center;fontStyle=4;labelBackgroundColor=none;labelBorderColor=none;fillColor=#EEEEEE;strokeColor=#FFFFFF;fontColor=#1A1A1A;" parent="1" vertex="1">
                    <mxGeometry x="410" y="750" width="70" height="30" as="geometry"/>
                </mxCell>
                <mxCell id="57" style="edgeStyle=none;html=1;entryX=0.25;entryY=0;entryDx=0;entryDy=0;labelBackgroundColor=none;strokeColor=#FFFFFF;fontColor=default;" parent="1" source="56" target="5" edge="1">
                    <mxGeometry relative="1" as="geometry"/>
                </mxCell>
                <mxCell id="56" value="data_&lt;br&gt;emissao" style="ellipse;whiteSpace=wrap;html=1;align=center;labelBackgroundColor=none;labelBorderColor=none;fillColor=#EEEEEE;strokeColor=#FFFFFF;fontColor=#1A1A1A;" parent="1" vertex="1">
                    <mxGeometry x="290" y="390" width="70" height="30" as="geometry"/>
                </mxCell>
                <mxCell id="59" style="edgeStyle=none;html=1;entryX=0.25;entryY=1;entryDx=0;entryDy=0;labelBackgroundColor=none;strokeColor=#FFFFFF;fontColor=default;" parent="1" source="58" target="5" edge="1">
                    <mxGeometry relative="1" as="geometry"/>
                </mxCell>
                <mxCell id="58" value="valor" style="ellipse;whiteSpace=wrap;html=1;align=center;labelBackgroundColor=none;labelBorderColor=none;fillColor=#EEEEEE;strokeColor=#FFFFFF;fontColor=#1A1A1A;" parent="1" vertex="1">
                    <mxGeometry x="280" y="540" width="70" height="30" as="geometry"/>
                </mxCell>
                <mxCell id="61" style="edgeStyle=none;html=1;entryX=0.75;entryY=1;entryDx=0;entryDy=0;labelBackgroundColor=none;strokeColor=#FFFFFF;fontColor=default;" parent="1" source="60" target="5" edge="1">
                    <mxGeometry relative="1" as="geometry"/>
                </mxCell>
                <mxCell id="60" value="status" style="ellipse;whiteSpace=wrap;html=1;align=center;labelBackgroundColor=none;labelBorderColor=none;fillColor=#EEEEEE;strokeColor=#FFFFFF;fontColor=#1A1A1A;" parent="1" vertex="1">
                    <mxGeometry x="360" y="540" width="70" height="30" as="geometry"/>
                </mxCell>
                <mxCell id="63" style="edgeStyle=none;html=1;entryX=1;entryY=0.25;entryDx=0;entryDy=0;labelBackgroundColor=none;strokeColor=#FFFFFF;fontColor=default;" parent="1" source="62" target="5" edge="1">
                    <mxGeometry relative="1" as="geometry"/>
                </mxCell>
                <mxCell id="62" value="data_&lt;br&gt;conclusao" style="ellipse;whiteSpace=wrap;html=1;align=center;labelBackgroundColor=none;labelBorderColor=none;fillColor=#EEEEEE;strokeColor=#FFFFFF;fontColor=#1A1A1A;" parent="1" vertex="1">
                    <mxGeometry x="445" y="445" width="70" height="40" as="geometry"/>
                </mxCell>
                <mxCell id="67" style="edgeStyle=none;html=1;entryX=0.25;entryY=0;entryDx=0;entryDy=0;labelBackgroundColor=none;strokeColor=#FFFFFF;fontColor=default;" parent="1" source="68" target="2" edge="1">
                    <mxGeometry relative="1" as="geometry">
                        <mxPoint x="445" y="140" as="targetPoint"/>
                    </mxGeometry>
                </mxCell>
                <mxCell id="68" value="nome" style="ellipse;whiteSpace=wrap;html=1;align=center;labelBackgroundColor=none;fillColor=#EEEEEE;strokeColor=#FFFFFF;fontColor=#1A1A1A;" parent="1" vertex="1">
                    <mxGeometry x="325" y="80" width="70" height="30" as="geometry"/>
                </mxCell>
                <mxCell id="69" style="edgeStyle=none;html=1;entryX=0;entryY=0;entryDx=0;entryDy=0;labelBackgroundColor=none;strokeColor=#FFFFFF;fontColor=default;" parent="1" source="70" target="68" edge="1">
                    <mxGeometry relative="1" as="geometry"/>
                </mxCell>
                <mxCell id="70" value="primeiro_nome" style="ellipse;whiteSpace=wrap;html=1;align=center;labelBackgroundColor=none;fillColor=#EEEEEE;strokeColor=#FFFFFF;fontColor=#1A1A1A;" parent="1" vertex="1">
                    <mxGeometry x="240" y="50" width="70" height="30" as="geometry"/>
                </mxCell>
                <mxCell id="71" style="edgeStyle=none;html=1;labelBackgroundColor=none;strokeColor=#FFFFFF;fontColor=default;" parent="1" source="72" target="68" edge="1">
                    <mxGeometry relative="1" as="geometry"/>
                </mxCell>
                <mxCell id="72" value="nome_meio" style="ellipse;whiteSpace=wrap;html=1;align=center;labelBackgroundColor=none;fillColor=#EEEEEE;strokeColor=#FFFFFF;fontColor=#1A1A1A;" parent="1" vertex="1">
                    <mxGeometry x="310" y="30" width="70" height="30" as="geometry"/>
                </mxCell>
                <mxCell id="73" style="edgeStyle=none;html=1;entryX=1;entryY=0;entryDx=0;entryDy=0;labelBackgroundColor=none;strokeColor=#FFFFFF;fontColor=default;" parent="1" source="74" target="68" edge="1">
                    <mxGeometry relative="1" as="geometry"/>
                </mxCell>
                <mxCell id="74" value="sobrenome" style="ellipse;whiteSpace=wrap;html=1;align=center;labelBackgroundColor=none;fillColor=#EEEEEE;strokeColor=#FFFFFF;fontColor=#1A1A1A;" parent="1" vertex="1">
                    <mxGeometry x="390" y="40" width="70" height="30" as="geometry"/>
                </mxCell>
                <mxCell id="77" style="edgeStyle=none;html=1;entryX=1;entryY=0.25;entryDx=0;entryDy=0;labelBackgroundColor=none;strokeColor=#FFFFFF;fontColor=default;" parent="1" source="75" target="2" edge="1">
                    <mxGeometry relative="1" as="geometry"/>
                </mxCell>
                <mxCell id="75" value="cpf" style="ellipse;whiteSpace=wrap;html=1;align=center;labelBackgroundColor=none;fillColor=#EEEEEE;strokeColor=#FFFFFF;fontColor=#1A1A1A;" parent="1" vertex="1">
                    <mxGeometry x="445" y="120" width="70" height="30" as="geometry"/>
                </mxCell>
                <mxCell id="81" style="edgeStyle=none;html=1;entryX=0.25;entryY=0;entryDx=0;entryDy=0;labelBackgroundColor=none;strokeColor=#FFFFFF;fontColor=default;" parent="1" source="82" target="3" edge="1">
                    <mxGeometry relative="1" as="geometry">
                        <mxPoint x="640" y="120" as="targetPoint"/>
                    </mxGeometry>
                </mxCell>
                <mxCell id="82" value="descricao" style="ellipse;whiteSpace=wrap;html=1;align=center;labelBackgroundColor=none;fillColor=#EEEEEE;strokeColor=#FFFFFF;fontColor=#1A1A1A;" parent="1" vertex="1">
                    <mxGeometry x="90" y="230" width="70" height="30" as="geometry"/>
                </mxCell>
                <mxCell id="83" style="edgeStyle=none;html=1;entryX=0;entryY=0;entryDx=0;entryDy=0;labelBackgroundColor=none;strokeColor=#FFFFFF;fontColor=default;" parent="1" source="84" target="82" edge="1">
                    <mxGeometry relative="1" as="geometry"/>
                </mxCell>
                <mxCell id="84" value="marca" style="ellipse;whiteSpace=wrap;html=1;align=center;labelBackgroundColor=none;fillColor=#EEEEEE;strokeColor=#FFFFFF;fontColor=#1A1A1A;" parent="1" vertex="1">
                    <mxGeometry x="40" y="190" width="70" height="30" as="geometry"/>
                </mxCell>
                <mxCell id="85" style="edgeStyle=none;html=1;entryX=1;entryY=0;entryDx=0;entryDy=0;labelBackgroundColor=none;strokeColor=#FFFFFF;fontColor=default;" parent="1" source="86" target="82" edge="1">
                    <mxGeometry relative="1" as="geometry"/>
                </mxCell>
                <mxCell id="86" value="modelo" style="ellipse;whiteSpace=wrap;html=1;align=center;labelBackgroundColor=none;fillColor=#EEEEEE;strokeColor=#FFFFFF;fontColor=#1A1A1A;" parent="1" vertex="1">
                    <mxGeometry x="125" y="190" width="70" height="30" as="geometry"/>
                </mxCell>
                <mxCell id="87" style="edgeStyle=none;html=1;entryX=0.75;entryY=0;entryDx=0;entryDy=0;labelBackgroundColor=none;strokeColor=#FFFFFF;fontColor=default;" parent="1" source="88" target="3" edge="1">
                    <mxGeometry relative="1" as="geometry">
                        <mxPoint x="690" y="120" as="targetPoint"/>
                    </mxGeometry>
                </mxCell>
                <mxCell id="88" value="placa" style="ellipse;whiteSpace=wrap;html=1;align=center;labelBackgroundColor=none;fillColor=#EEEEEE;strokeColor=#FFFFFF;fontColor=#1A1A1A;" parent="1" vertex="1">
                    <mxGeometry x="170" y="230" width="70" height="30" as="geometry"/>
                </mxCell>
                <mxCell id="89" style="edgeStyle=none;html=1;entryX=1;entryY=0.25;entryDx=0;entryDy=0;labelBackgroundColor=none;strokeColor=#FFFFFF;fontColor=default;" parent="1" source="90" target="3" edge="1">
                    <mxGeometry relative="1" as="geometry">
                        <mxPoint x="715" y="140" as="targetPoint"/>
                    </mxGeometry>
                </mxCell>
                <mxCell id="90" value="tipo" style="ellipse;whiteSpace=wrap;html=1;align=center;labelBackgroundColor=none;fillColor=#EEEEEE;strokeColor=#FFFFFF;fontColor=#1A1A1A;" parent="1" vertex="1">
                    <mxGeometry x="270" y="270" width="70" height="30" as="geometry"/>
                </mxCell>
                <mxCell id="91" style="edgeStyle=none;html=1;entryX=1;entryY=0.75;entryDx=0;entryDy=0;labelBackgroundColor=none;strokeColor=#FFFFFF;fontColor=default;" parent="1" source="92" target="3" edge="1">
                    <mxGeometry relative="1" as="geometry">
                        <mxPoint x="630" y="260" as="targetPoint"/>
                    </mxGeometry>
                </mxCell>
                <mxCell id="92" value="ano_&lt;br&gt;fabricacao" style="ellipse;whiteSpace=wrap;html=1;align=center;labelBackgroundColor=none;fillColor=#EEEEEE;strokeColor=#FFFFFF;fontColor=#1A1A1A;" parent="1" vertex="1">
                    <mxGeometry x="250" y="330" width="80" height="30" as="geometry"/>
                </mxCell>
                <mxCell id="96" style="edgeStyle=none;html=1;entryX=0.75;entryY=1;entryDx=0;entryDy=0;labelBackgroundColor=none;strokeColor=#FFFFFF;fontColor=default;" parent="1" source="97" target="3" edge="1">
                    <mxGeometry relative="1" as="geometry">
                        <mxPoint x="690" y="160" as="targetPoint"/>
                        <Array as="points"/>
                    </mxGeometry>
                </mxCell>
                <mxCell id="97" value="renavam" style="ellipse;whiteSpace=wrap;html=1;align=center;labelBackgroundColor=none;fillColor=#EEEEEE;strokeColor=#FFFFFF;fontColor=#1A1A1A;" parent="1" vertex="1">
                    <mxGeometry x="160" y="390" width="70" height="30" as="geometry"/>
                </mxCell>
                <mxCell id="98" style="edgeStyle=none;html=1;entryX=0.25;entryY=1;entryDx=0;entryDy=0;labelBackgroundColor=none;strokeColor=#FFFFFF;fontColor=default;" parent="1" source="99" target="3" edge="1">
                    <mxGeometry relative="1" as="geometry">
                        <mxPoint x="640" y="160" as="targetPoint"/>
                    </mxGeometry>
                </mxCell>
                <mxCell id="99" value="combustivel" style="ellipse;whiteSpace=wrap;html=1;align=center;labelBackgroundColor=none;fillColor=#EEEEEE;strokeColor=#FFFFFF;fontColor=#1A1A1A;" parent="1" vertex="1">
                    <mxGeometry x="80" y="390" width="70" height="30" as="geometry"/>
                </mxCell>
                <mxCell id="100" style="edgeStyle=none;html=1;entryX=0;entryY=0.75;entryDx=0;entryDy=0;labelBackgroundColor=none;strokeColor=#FFFFFF;fontColor=default;" parent="1" source="101" target="3" edge="1">
                    <mxGeometry relative="1" as="geometry">
                        <mxPoint x="615" y="150" as="targetPoint"/>
                    </mxGeometry>
                </mxCell>
                <mxCell id="101" value="cor" style="ellipse;whiteSpace=wrap;html=1;align=center;labelBackgroundColor=none;fillColor=#EEEEEE;strokeColor=#FFFFFF;fontColor=#1A1A1A;" parent="1" vertex="1">
                    <mxGeometry x="20" y="350" width="70" height="30" as="geometry"/>
                </mxCell>
                <mxCell id="104" style="edgeStyle=none;html=1;entryX=0.25;entryY=1;entryDx=0;entryDy=0;labelBackgroundColor=none;strokeColor=#FFFFFF;fontColor=default;" parent="1" source="103" target="6" edge="1">
                    <mxGeometry relative="1" as="geometry"/>
                </mxCell>
                <mxCell id="103" value="descricao" style="ellipse;whiteSpace=wrap;html=1;align=center;labelBackgroundColor=none;labelBorderColor=none;fillColor=#EEEEEE;strokeColor=#FFFFFF;fontColor=#1A1A1A;" parent="1" vertex="1">
                    <mxGeometry x="70" y="860" width="70" height="30" as="geometry"/>
                </mxCell>
                <mxCell id="106" style="edgeStyle=none;html=1;entryX=0.75;entryY=1;entryDx=0;entryDy=0;labelBackgroundColor=none;strokeColor=#FFFFFF;fontColor=default;" parent="1" source="105" target="6" edge="1">
                    <mxGeometry relative="1" as="geometry"/>
                </mxCell>
                <mxCell id="105" value="valor" style="ellipse;whiteSpace=wrap;html=1;align=center;labelBackgroundColor=none;labelBorderColor=none;fillColor=#EEEEEE;strokeColor=#FFFFFF;fontColor=#1A1A1A;" parent="1" vertex="1">
                    <mxGeometry x="160" y="860" width="70" height="30" as="geometry"/>
                </mxCell>
                <mxCell id="108" style="edgeStyle=none;html=1;entryX=0.25;entryY=1;entryDx=0;entryDy=0;labelBackgroundColor=none;strokeColor=#FFFFFF;fontColor=default;" parent="1" source="107" target="8" edge="1">
                    <mxGeometry relative="1" as="geometry"/>
                </mxCell>
                <mxCell id="107" value="descricao" style="ellipse;whiteSpace=wrap;html=1;align=center;labelBackgroundColor=none;labelBorderColor=none;fillColor=#EEEEEE;strokeColor=#FFFFFF;fontColor=#1A1A1A;" parent="1" vertex="1">
                    <mxGeometry x="470" y="860" width="70" height="30" as="geometry"/>
                </mxCell>
                <mxCell id="110" style="edgeStyle=none;html=1;entryX=0.75;entryY=1;entryDx=0;entryDy=0;labelBackgroundColor=none;strokeColor=#FFFFFF;fontColor=default;" parent="1" source="109" target="8" edge="1">
                    <mxGeometry relative="1" as="geometry"/>
                </mxCell>
                <mxCell id="109" value="valor" style="ellipse;whiteSpace=wrap;html=1;align=center;labelBackgroundColor=none;labelBorderColor=none;fillColor=#EEEEEE;strokeColor=#FFFFFF;fontColor=#1A1A1A;" parent="1" vertex="1">
                    <mxGeometry x="570" y="860" width="70" height="30" as="geometry"/>
                </mxCell>
                <mxCell id="112" style="edgeStyle=none;html=1;entryX=0;entryY=0;entryDx=0;entryDy=0;labelBackgroundColor=none;strokeColor=#FFFFFF;fontColor=default;" parent="1" source="111" target="40" edge="1">
                    <mxGeometry relative="1" as="geometry"/>
                </mxCell>
                <mxCell id="111" value="primeiro_nome" style="ellipse;whiteSpace=wrap;html=1;align=center;labelBackgroundColor=none;fillColor=#EEEEEE;strokeColor=#FFFFFF;fontColor=#1A1A1A;" parent="1" vertex="1">
                    <mxGeometry x="640" y="210" width="70" height="30" as="geometry"/>
                </mxCell>
                <mxCell id="114" style="edgeStyle=none;html=1;entryX=0.5;entryY=0;entryDx=0;entryDy=0;labelBackgroundColor=none;strokeColor=#FFFFFF;fontColor=default;" parent="1" source="113" target="40" edge="1">
                    <mxGeometry relative="1" as="geometry"/>
                </mxCell>
                <mxCell id="113" value="nome_meio" style="ellipse;whiteSpace=wrap;html=1;align=center;labelBackgroundColor=none;fillColor=#EEEEEE;strokeColor=#FFFFFF;fontColor=#1A1A1A;" parent="1" vertex="1">
                    <mxGeometry x="690" y="180" width="70" height="30" as="geometry"/>
                </mxCell>
                <mxCell id="116" style="edgeStyle=none;html=1;entryX=1;entryY=0;entryDx=0;entryDy=0;labelBackgroundColor=none;strokeColor=#FFFFFF;fontColor=default;" parent="1" source="115" target="40" edge="1">
                    <mxGeometry relative="1" as="geometry"/>
                </mxCell>
                <mxCell id="115" value="sobrenome" style="ellipse;whiteSpace=wrap;html=1;align=center;labelBackgroundColor=none;fillColor=#EEEEEE;strokeColor=#FFFFFF;fontColor=#1A1A1A;" parent="1" vertex="1">
                    <mxGeometry x="770" y="180" width="70" height="30" as="geometry"/>
                </mxCell>
                <mxCell id="119" style="edgeStyle=none;html=1;entryX=1;entryY=0.5;entryDx=0;entryDy=0;" parent="1" source="117" target="2" edge="1">
                    <mxGeometry relative="1" as="geometry"/>
                </mxCell>
                <mxCell id="117" value="endereco" style="ellipse;whiteSpace=wrap;html=1;align=center;labelBackgroundColor=none;fillColor=#EEEEEE;strokeColor=#FFFFFF;fontColor=#1A1A1A;" parent="1" vertex="1">
                    <mxGeometry x="450" y="160" width="70" height="30" as="geometry"/>
                </mxCell>
                <mxCell id="120" style="edgeStyle=none;html=1;entryX=1;entryY=0.75;entryDx=0;entryDy=0;" parent="1" source="118" target="2" edge="1">
                    <mxGeometry relative="1" as="geometry"/>
                </mxCell>
                <mxCell id="118" value="telefone" style="ellipse;whiteSpace=wrap;html=1;align=center;labelBackgroundColor=none;fillColor=#EEEEEE;strokeColor=#FFFFFF;fontColor=#1A1A1A;" parent="1" vertex="1">
                    <mxGeometry x="440" y="200" width="70" height="30" as="geometry"/>
                </mxCell>
                <mxCell id="122" style="edgeStyle=none;html=1;entryX=0;entryY=1;entryDx=0;entryDy=0;" parent="1" source="121" target="9" edge="1">
                    <mxGeometry relative="1" as="geometry"/>
                </mxCell>
                <mxCell id="121" value="telefone" style="ellipse;whiteSpace=wrap;html=1;align=center;labelBackgroundColor=none;labelBorderColor=none;fillColor=#EEEEEE;strokeColor=#FFFFFF;fontColor=#1A1A1A;" parent="1" vertex="1">
                    <mxGeometry x="630" y="380" width="70" height="30" as="geometry"/>
                </mxCell>
                <mxCell id="124" style="edgeStyle=none;html=1;entryX=1;entryY=0.5;entryDx=0;entryDy=0;" parent="1" source="123" target="5" edge="1">
                    <mxGeometry relative="1" as="geometry"/>
                </mxCell>
                <mxCell id="123" value="tipo_&lt;br&gt;servico" style="ellipse;whiteSpace=wrap;html=1;align=center;labelBackgroundColor=none;fillColor=#EEEEEE;strokeColor=#FFFFFF;fontColor=#1A1A1A;" parent="1" vertex="1">
                    <mxGeometry x="440" y="490" width="70" height="30" as="geometry"/>
                </mxCell>
                <mxCell id="126" style="edgeStyle=none;html=1;entryX=0;entryY=0.75;entryDx=0;entryDy=0;" parent="1" source="125" target="5" edge="1">
                    <mxGeometry relative="1" as="geometry"/>
                </mxCell>
                <mxCell id="125" value="autorizado" style="ellipse;whiteSpace=wrap;html=1;align=center;labelBackgroundColor=none;fillColor=#EEEEEE;strokeColor=#FFFFFF;fontColor=#1A1A1A;" parent="1" vertex="1">
                    <mxGeometry x="200" y="500" width="70" height="30" as="geometry"/>
                </mxCell>
            </root>
        </mxGraphModel>
    </diagram>
</mxfile>